<svg width="400" height="400" viewBox="0 0 400 400" xmlns="http://www.w3.org/2000/svg">
  <defs>
    <linearGradient id="sky1" x1="0" y1="0" x2="0" y2="1">
      <stop offset="0%" stop-color="#7fa08c"/>
      <stop offset="55%" stop-color="#cfe0c9"/>
      <stop offset="100%" stop-color="#f2ddab"/>
    </linearGradient>
  </defs>
  <rect width="400" height="400" fill="url(#sky1)"/>
  <path d="M60 260 A140 140 0 0 1 340 260" fill="none" stroke="#d17d6e" stroke-width="14"/>
  <path d="M78 260 A122 122 0 0 1 322 260" fill="none" stroke="#d8ab5c" stroke-width="14"/>
  <path d="M96 260 A104 104 0 0 1 304 260" fill="none" stroke="#7fa08c" stroke-width="14"/>
  <path d="M114 260 A86 86 0 0 1 286 260" fill="none" stroke="#4a6fa5" stroke-width="14"/>
  <circle cx="330" cy="70" r="30" fill="#f6f1e4" opacity="0.9"/>
  <ellipse cx="200" cy="360" rx="220" ry="60" fill="#3c5648"/>
  <path d="M120 300 Q200 260 280 300 L268 340 Q200 320 132 340 Z" fill="#7a5230"/>
  <rect x="150" y="270" width="100" height="34" rx="8" fill="#8a6a45"/>
  <path d="M150 270 Q200 240 250 270 Z" fill="#5a3f24"/>
  <rect x="170" y="278" width="16" height="16" fill="#f2ddab"/>
  <rect x="214" y="278" width="16" height="16" fill="#f2ddab"/>
  <g opacity="0.9">
    <path d="M60 120 q14 -18 28 0 q14 -18 28 0" fill="none" stroke="#f6f1e4" stroke-width="5" stroke-linecap="round"/>
    <path d="M110 150 q14 -18 28 0 q14 -18 28 0" fill="none" stroke="#f6f1e4" stroke-width="5" stroke-linecap="round"/>
  </g>
</svg>
